<svg xmlns="http://www.w3.org/2000/svg" xmlns:xlink="http://www.w3.org/1999/xlink" width="500" zoomAndPan="magnify" viewBox="0 0 375 74.999997" height="100" preserveAspectRatio="xMidYMid meet" version="1.0"><defs><g/><linearGradient x1="0" gradientTransform="matrix(0.75, 0, 0, 0.75, 0.0000075, -0.000001)" y1="50" x2="499.999979" gradientUnits="userSpaceOnUse" y2="50" id="62bcd7b598"><stop stop-opacity="1" stop-color="rgb(77.2995%, 96.899414%, 100%)" offset="0"/><stop stop-opacity="1" stop-color="rgb(77.470398%, 96.859741%, 100%)" offset="0.015625"/><stop stop-opacity="1" stop-color="rgb(77.812195%, 96.77887%, 100%)" offset="0.03125"/><stop stop-opacity="1" stop-color="rgb(78.153992%, 96.699524%, 100%)" offset="0.046875"/><stop stop-opacity="1" stop-color="rgb(78.497314%, 96.620178%, 100%)" offset="0.0625"/><stop stop-opacity="1" stop-color="rgb(78.839111%, 96.540833%, 100%)" offset="0.078125"/><stop stop-opacity="1" stop-color="rgb(79.180908%, 96.461487%, 100%)" offset="0.09375"/><stop stop-opacity="1" stop-color="rgb(79.522705%, 96.380615%, 100%)" offset="0.109375"/><stop stop-opacity="1" stop-color="rgb(79.866028%, 96.30127%, 100%)" offset="0.125"/><stop stop-opacity="1" stop-color="rgb(80.207825%, 96.221924%, 100%)" offset="0.140625"/><stop stop-opacity="1" stop-color="rgb(80.549622%, 96.142578%, 100%)" offset="0.15625"/><stop stop-opacity="1" stop-color="rgb(80.891418%, 96.061707%, 100%)" offset="0.171875"/><stop stop-opacity="1" stop-color="rgb(81.234741%, 95.982361%, 100%)" offset="0.1875"/><stop stop-opacity="1" stop-color="rgb(81.576538%, 95.903015%, 100%)" offset="0.203125"/><stop stop-opacity="1" stop-color="rgb(81.918335%, 95.823669%, 100%)" offset="0.21875"/><stop stop-opacity="1" stop-color="rgb(82.260132%, 95.744324%, 100%)" offset="0.234375"/><stop stop-opacity="1" stop-color="rgb(82.603455%, 95.663452%, 100%)" offset="0.25"/><stop stop-opacity="1" stop-color="rgb(82.945251%, 95.584106%, 100%)" offset="0.265625"/><stop stop-opacity="1" stop-color="rgb(83.287048%, 95.504761%, 100%)" offset="0.28125"/><stop stop-opacity="1" stop-color="rgb(83.628845%, 95.425415%, 100%)" offset="0.296875"/><stop stop-opacity="1" stop-color="rgb(83.972168%, 95.344543%, 100%)" offset="0.3125"/><stop stop-opacity="1" stop-color="rgb(84.313965%, 95.265198%, 100%)" offset="0.328125"/><stop stop-opacity="1" stop-color="rgb(84.655762%, 95.185852%, 100%)" offset="0.34375"/><stop stop-opacity="1" stop-color="rgb(84.997559%, 95.106506%, 100%)" offset="0.359375"/><stop stop-opacity="1" stop-color="rgb(85.340881%, 95.027161%, 100%)" offset="0.375"/><stop stop-opacity="1" stop-color="rgb(85.682678%, 94.946289%, 100%)" offset="0.390625"/><stop stop-opacity="1" stop-color="rgb(86.024475%, 94.866943%, 100%)" offset="0.40625"/><stop stop-opacity="1" stop-color="rgb(86.366272%, 94.787598%, 100%)" offset="0.421875"/><stop stop-opacity="1" stop-color="rgb(86.709595%, 94.708252%, 100%)" offset="0.4375"/><stop stop-opacity="1" stop-color="rgb(87.051392%, 94.62738%, 100%)" offset="0.453125"/><stop stop-opacity="1" stop-color="rgb(87.393188%, 94.548035%, 100%)" offset="0.46875"/><stop stop-opacity="1" stop-color="rgb(87.736511%, 94.468689%, 100%)" offset="0.484375"/><stop stop-opacity="1" stop-color="rgb(88.078308%, 94.389343%, 100%)" offset="0.5"/><stop stop-opacity="1" stop-color="rgb(88.420105%, 94.308472%, 100%)" offset="0.515625"/><stop stop-opacity="1" stop-color="rgb(88.761902%, 94.229126%, 100%)" offset="0.53125"/><stop stop-opacity="1" stop-color="rgb(89.105225%, 94.14978%, 100%)" offset="0.546875"/><stop stop-opacity="1" stop-color="rgb(89.447021%, 94.070435%, 100%)" offset="0.5625"/><stop stop-opacity="1" stop-color="rgb(89.788818%, 93.991089%, 100%)" offset="0.578125"/><stop stop-opacity="1" stop-color="rgb(90.130615%, 93.910217%, 100%)" offset="0.59375"/><stop stop-opacity="1" stop-color="rgb(90.473938%, 93.830872%, 100%)" offset="0.609375"/><stop stop-opacity="1" stop-color="rgb(90.815735%, 93.751526%, 100%)" offset="0.625"/><stop stop-opacity="1" stop-color="rgb(91.157532%, 93.67218%, 100%)" offset="0.640625"/><stop stop-opacity="1" stop-color="rgb(91.499329%, 93.591309%, 100%)" offset="0.65625"/><stop stop-opacity="1" stop-color="rgb(91.842651%, 93.511963%, 100%)" offset="0.671875"/><stop stop-opacity="1" stop-color="rgb(92.184448%, 93.432617%, 100%)" offset="0.6875"/><stop stop-opacity="1" stop-color="rgb(92.526245%, 93.353271%, 100%)" offset="0.703125"/><stop stop-opacity="1" stop-color="rgb(92.868042%, 93.273926%, 100%)" offset="0.71875"/><stop stop-opacity="1" stop-color="rgb(93.211365%, 93.193054%, 100%)" offset="0.734375"/><stop stop-opacity="1" stop-color="rgb(93.553162%, 93.113708%, 100%)" offset="0.75"/><stop stop-opacity="1" stop-color="rgb(93.894958%, 93.034363%, 100%)" offset="0.765625"/><stop stop-opacity="1" stop-color="rgb(94.236755%, 92.955017%, 100%)" offset="0.78125"/><stop stop-opacity="1" stop-color="rgb(94.580078%, 92.874146%, 100%)" offset="0.796875"/><stop stop-opacity="1" stop-color="rgb(94.921875%, 92.7948%, 100%)" offset="0.8125"/><stop stop-opacity="1" stop-color="rgb(95.263672%, 92.715454%, 100%)" offset="0.828125"/><stop stop-opacity="1" stop-color="rgb(95.605469%, 92.636108%, 100%)" offset="0.84375"/><stop stop-opacity="1" stop-color="rgb(95.948792%, 92.556763%, 100%)" offset="0.859375"/><stop stop-opacity="1" stop-color="rgb(96.290588%, 92.475891%, 100%)" offset="0.875"/><stop stop-opacity="1" stop-color="rgb(96.632385%, 92.396545%, 100%)" offset="0.890625"/><stop stop-opacity="1" stop-color="rgb(96.974182%, 92.3172%, 100%)" offset="0.90625"/><stop stop-opacity="1" stop-color="rgb(97.317505%, 92.237854%, 100%)" offset="0.921875"/><stop stop-opacity="1" stop-color="rgb(97.659302%, 92.156982%, 100%)" offset="0.9375"/><stop stop-opacity="1" stop-color="rgb(98.001099%, 92.077637%, 100%)" offset="0.953125"/><stop stop-opacity="1" stop-color="rgb(98.342896%, 91.998291%, 100%)" offset="0.96875"/><stop stop-opacity="1" stop-color="rgb(98.686218%, 91.918945%, 100%)" offset="0.984375"/><stop stop-opacity="1" stop-color="rgb(99.028015%, 91.8396%, 100%)" offset="1"/></linearGradient></defs><rect x="-37.5" width="450" fill="#ffffff" y="-7.5" height="89.999996" fill-opacity="1"/><rect x="-37.5" fill="url(#62bcd7b598)" width="450" y="-7.5" height="89.999996"/><g fill="#000000" fill-opacity="1"><g transform="translate(13.502165, 55.054223)"><g><path d="M 36 -24.140625 L 28.0625 -24.140625 C 27.757812 -26.179688 26.890625 -27.785156 25.453125 -28.953125 C 24.015625 -30.117188 22.21875 -30.703125 20.0625 -30.703125 C 17.1875 -30.703125 14.878906 -29.644531 13.140625 -27.53125 C 11.398438 -25.425781 10.53125 -22.441406 10.53125 -18.578125 C 10.53125 -14.609375 11.40625 -11.59375 13.15625 -9.53125 C 14.90625 -7.46875 17.1875 -6.4375 20 -6.4375 C 22.09375 -6.4375 23.863281 -6.984375 25.3125 -8.078125 C 26.769531 -9.171875 27.6875 -10.710938 28.0625 -12.703125 L 36 -12.65625 C 35.726562 -10.382812 34.921875 -8.242188 33.578125 -6.234375 C 32.234375 -4.234375 30.410156 -2.609375 28.109375 -1.359375 C 25.804688 -0.109375 23.0625 0.515625 19.875 0.515625 C 16.5625 0.515625 13.601562 -0.234375 11 -1.734375 C 8.394531 -3.234375 6.335938 -5.40625 4.828125 -8.25 C 3.328125 -11.09375 2.578125 -14.535156 2.578125 -18.578125 C 2.578125 -22.628906 3.335938 -26.070312 4.859375 -28.90625 C 6.378906 -31.75 8.445312 -33.914062 11.0625 -35.40625 C 13.675781 -36.90625 16.613281 -37.65625 19.875 -37.65625 C 22.738281 -37.65625 25.320312 -37.125 27.625 -36.0625 C 29.9375 -35.007812 31.828125 -33.472656 33.296875 -31.453125 C 34.765625 -29.441406 35.664062 -27.003906 36 -24.140625 Z M 36 -24.140625 "/></g></g></g><g fill="#000000" fill-opacity="1"><g transform="translate(51.921012, 55.054223)"><g><path d="M 15.671875 0.546875 C 12.859375 0.546875 10.425781 -0.0507812 8.375 -1.25 C 6.320312 -2.457031 4.738281 -4.140625 3.625 -6.296875 C 2.507812 -8.460938 1.953125 -10.972656 1.953125 -13.828125 C 1.953125 -16.703125 2.507812 -19.21875 3.625 -21.375 C 4.738281 -23.53125 6.320312 -25.207031 8.375 -26.40625 C 10.425781 -27.613281 12.859375 -28.21875 15.671875 -28.21875 C 18.484375 -28.21875 20.914062 -27.613281 22.96875 -26.40625 C 25.019531 -25.207031 26.601562 -23.53125 27.71875 -21.375 C 28.832031 -19.21875 29.390625 -16.703125 29.390625 -13.828125 C 29.390625 -10.972656 28.832031 -8.460938 27.71875 -6.296875 C 26.601562 -4.140625 25.019531 -2.457031 22.96875 -1.25 C 20.914062 -0.0507812 18.484375 0.546875 15.671875 0.546875 Z M 15.703125 -5.4375 C 17.617188 -5.4375 19.066406 -6.234375 20.046875 -7.828125 C 21.035156 -9.429688 21.53125 -11.445312 21.53125 -13.875 C 21.53125 -16.300781 21.035156 -18.316406 20.046875 -19.921875 C 19.066406 -21.523438 17.617188 -22.328125 15.703125 -22.328125 C 13.753906 -22.328125 12.285156 -21.523438 11.296875 -19.921875 C 10.304688 -18.316406 9.8125 -16.300781 9.8125 -13.875 C 9.8125 -11.445312 10.304688 -9.429688 11.296875 -7.828125 C 12.285156 -6.234375 13.753906 -5.4375 15.703125 -5.4375 Z M 15.703125 -5.4375 "/></g></g></g><g fill="#000000" fill-opacity="1"><g transform="translate(83.265571, 55.054223)"><g><path d="M 3.078125 0 L 3.078125 -27.859375 L 10.453125 -27.859375 L 10.453125 -22.953125 L 10.78125 -22.953125 C 11.351562 -24.585938 12.316406 -25.875 13.671875 -26.8125 C 15.035156 -27.75 16.65625 -28.21875 18.53125 -28.21875 C 20.445312 -28.21875 22.078125 -27.742188 23.421875 -26.796875 C 24.765625 -25.847656 25.65625 -24.566406 26.09375 -22.953125 L 26.390625 -22.953125 C 26.960938 -24.546875 27.992188 -25.820312 29.484375 -26.78125 C 30.972656 -27.738281 32.742188 -28.21875 34.796875 -28.21875 C 37.390625 -28.21875 39.5 -27.390625 41.125 -25.734375 C 42.75 -24.085938 43.5625 -21.753906 43.5625 -18.734375 L 43.5625 0 L 35.859375 0 L 35.859375 -17.21875 C 35.859375 -18.757812 35.445312 -19.914062 34.625 -20.6875 C 33.800781 -21.46875 32.773438 -21.859375 31.546875 -21.859375 C 30.140625 -21.859375 29.039062 -21.410156 28.25 -20.515625 C 27.46875 -19.617188 27.078125 -18.453125 27.078125 -17.015625 L 27.078125 0 L 19.59375 0 L 19.59375 -17.375 C 19.59375 -18.738281 19.203125 -19.828125 18.421875 -20.640625 C 17.640625 -21.453125 16.613281 -21.859375 15.34375 -21.859375 C 14.0625 -21.859375 12.984375 -21.390625 12.109375 -20.453125 C 11.242188 -19.515625 10.8125 -18.269531 10.8125 -16.71875 L 10.8125 0 Z M 3.078125 0 "/></g></g></g><g fill="#000000" fill-opacity="1"><g transform="translate(129.84707, 55.054223)"><g><path d="M 3.078125 0 L 3.078125 -27.859375 L 10.453125 -27.859375 L 10.453125 -22.953125 L 10.78125 -22.953125 C 11.351562 -24.585938 12.316406 -25.875 13.671875 -26.8125 C 15.035156 -27.75 16.65625 -28.21875 18.53125 -28.21875 C 20.445312 -28.21875 22.078125 -27.742188 23.421875 -26.796875 C 24.765625 -25.847656 25.65625 -24.566406 26.09375 -22.953125 L 26.390625 -22.953125 C 26.960938 -24.546875 27.992188 -25.820312 29.484375 -26.78125 C 30.972656 -27.738281 32.742188 -28.21875 34.796875 -28.21875 C 37.390625 -28.21875 39.5 -27.390625 41.125 -25.734375 C 42.75 -24.085938 43.5625 -21.753906 43.5625 -18.734375 L 43.5625 0 L 35.859375 0 L 35.859375 -17.21875 C 35.859375 -18.757812 35.445312 -19.914062 34.625 -20.6875 C 33.800781 -21.46875 32.773438 -21.859375 31.546875 -21.859375 C 30.140625 -21.859375 29.039062 -21.410156 28.25 -20.515625 C 27.46875 -19.617188 27.078125 -18.453125 27.078125 -17.015625 L 27.078125 0 L 19.59375 0 L 19.59375 -17.375 C 19.59375 -18.738281 19.203125 -19.828125 18.421875 -20.640625 C 17.640625 -21.453125 16.613281 -21.859375 15.34375 -21.859375 C 14.0625 -21.859375 12.984375 -21.390625 12.109375 -20.453125 C 11.242188 -19.515625 10.8125 -18.269531 10.8125 -16.71875 L 10.8125 0 Z M 3.078125 0 "/></g></g></g><g fill="#000000" fill-opacity="1"><g transform="translate(176.428569, 55.054223)"><g><path d="M 15.671875 0.546875 C 12.859375 0.546875 10.425781 -0.0507812 8.375 -1.25 C 6.320312 -2.457031 4.738281 -4.140625 3.625 -6.296875 C 2.507812 -8.460938 1.953125 -10.972656 1.953125 -13.828125 C 1.953125 -16.703125 2.507812 -19.21875 3.625 -21.375 C 4.738281 -23.53125 6.320312 -25.207031 8.375 -26.40625 C 10.425781 -27.613281 12.859375 -28.21875 15.671875 -28.21875 C 18.484375 -28.21875 20.914062 -27.613281 22.96875 -26.40625 C 25.019531 -25.207031 26.601562 -23.53125 27.71875 -21.375 C 28.832031 -19.21875 29.390625 -16.703125 29.390625 -13.828125 C 29.390625 -10.972656 28.832031 -8.460938 27.71875 -6.296875 C 26.601562 -4.140625 25.019531 -2.457031 22.96875 -1.25 C 20.914062 -0.0507812 18.484375 0.546875 15.671875 0.546875 Z M 15.703125 -5.4375 C 17.617188 -5.4375 19.066406 -6.234375 20.046875 -7.828125 C 21.035156 -9.429688 21.53125 -11.445312 21.53125 -13.875 C 21.53125 -16.300781 21.035156 -18.316406 20.046875 -19.921875 C 19.066406 -21.523438 17.617188 -22.328125 15.703125 -22.328125 C 13.753906 -22.328125 12.285156 -21.523438 11.296875 -19.921875 C 10.304688 -18.316406 9.8125 -16.300781 9.8125 -13.875 C 9.8125 -11.445312 10.304688 -9.429688 11.296875 -7.828125 C 12.285156 -6.234375 13.753906 -5.4375 15.703125 -5.4375 Z M 15.703125 -5.4375 "/></g></g></g><g fill="#000000" fill-opacity="1"><g transform="translate(207.773128, 55.054223)"><g><path d="M 10.8125 -16.109375 L 10.8125 0 L 3.078125 0 L 3.078125 -27.859375 L 10.453125 -27.859375 L 10.453125 -22.953125 L 10.78125 -22.953125 C 11.40625 -24.566406 12.4375 -25.847656 13.875 -26.796875 C 15.320312 -27.742188 17.082031 -28.21875 19.15625 -28.21875 C 22.050781 -28.21875 24.375 -27.285156 26.125 -25.421875 C 27.882812 -23.554688 28.765625 -20.992188 28.765625 -17.734375 L 28.765625 0 L 21.046875 0 L 21.046875 -16.359375 C 21.054688 -18.066406 20.617188 -19.398438 19.734375 -20.359375 C 18.847656 -21.316406 17.632812 -21.796875 16.09375 -21.796875 C 14.53125 -21.796875 13.257812 -21.296875 12.28125 -20.296875 C 11.3125 -19.304688 10.820312 -17.910156 10.8125 -16.109375 Z M 10.8125 -16.109375 "/></g></g></g><g fill="#1793d1" fill-opacity="1"><g transform="translate(239.555033, 55.054223)"><g><path d="M 9.625 0 L 1.21875 0 L 14.046875 -37.140625 L 24.15625 -37.140625 L 36.96875 0 L 28.546875 0 L 25.796875 -8.46875 L 12.390625 -8.46875 Z M 14.390625 -14.609375 L 23.8125 -14.609375 L 19.25 -28.65625 L 18.953125 -28.65625 Z M 14.390625 -14.609375 "/></g></g></g><g fill="#1793d1" fill-opacity="1"><g transform="translate(277.756216, 55.054223)"><g><path d="M 3.078125 0 L 3.078125 -27.859375 L 10.578125 -27.859375 L 10.578125 -23 L 10.859375 -23 C 11.367188 -24.726562 12.21875 -26.035156 13.40625 -26.921875 C 14.601562 -27.816406 15.988281 -28.265625 17.5625 -28.265625 C 18.3125 -28.265625 19.003906 -28.171875 19.640625 -27.984375 C 20.285156 -27.804688 20.863281 -27.5625 21.375 -27.25 L 19.046875 -20.859375 C 18.679688 -21.035156 18.285156 -21.1875 17.859375 -21.3125 C 17.429688 -21.445312 16.953125 -21.515625 16.421875 -21.515625 C 14.859375 -21.515625 13.535156 -20.976562 12.453125 -19.90625 C 11.367188 -18.84375 10.820312 -17.460938 10.8125 -15.765625 L 10.8125 0 Z M 3.078125 0 "/></g></g></g><g fill="#1793d1" fill-opacity="1"><g transform="translate(299.650249, 55.054223)"><g><path d="M 15.671875 0.546875 C 12.816406 0.546875 10.363281 -0.0625 8.3125 -1.28125 C 6.257812 -2.5 4.6875 -4.1875 3.59375 -6.34375 C 2.5 -8.507812 1.953125 -11.003906 1.953125 -13.828125 C 1.953125 -16.679688 2.503906 -19.1875 3.609375 -21.34375 C 4.722656 -23.5 6.300781 -25.179688 8.34375 -26.390625 C 10.382812 -27.609375 12.816406 -28.21875 15.640625 -28.21875 C 18.066406 -28.21875 20.195312 -27.773438 22.03125 -26.890625 C 23.863281 -26.015625 25.304688 -24.773438 26.359375 -23.171875 C 27.421875 -21.578125 28.003906 -19.707031 28.109375 -17.5625 L 20.828125 -17.5625 C 20.617188 -18.945312 20.078125 -20.066406 19.203125 -20.921875 C 18.328125 -21.773438 17.179688 -22.203125 15.765625 -22.203125 C 13.972656 -22.203125 12.53125 -21.484375 11.4375 -20.046875 C 10.351562 -18.609375 9.8125 -16.570312 9.8125 -13.9375 C 9.8125 -11.269531 10.351562 -9.207031 11.4375 -7.75 C 12.519531 -6.289062 13.960938 -5.5625 15.765625 -5.5625 C 17.085938 -5.5625 18.203125 -5.960938 19.109375 -6.765625 C 20.023438 -7.578125 20.597656 -8.726562 20.828125 -10.21875 L 28.109375 -10.21875 C 27.992188 -8.082031 27.414062 -6.203125 26.375 -4.578125 C 25.34375 -2.960938 23.921875 -1.703125 22.109375 -0.796875 C 20.296875 0.0976562 18.148438 0.546875 15.671875 0.546875 Z M 15.671875 0.546875 "/></g></g></g><g fill="#1793d1" fill-opacity="1"><g transform="translate(329.652497, 55.054223)"><g><path d="M 10.8125 -16.109375 L 10.8125 0 L 3.078125 0 L 3.078125 -37.140625 L 10.59375 -37.140625 L 10.59375 -22.953125 L 10.921875 -22.953125 C 11.554688 -24.585938 12.570312 -25.875 13.96875 -26.8125 C 15.375 -27.75 17.132812 -28.21875 19.25 -28.21875 C 22.144531 -28.21875 24.472656 -27.285156 26.234375 -25.421875 C 28.003906 -23.566406 28.882812 -21.003906 28.875 -17.734375 L 28.875 0 L 21.15625 0 L 21.15625 -16.359375 C 21.164062 -18.078125 20.726562 -19.410156 19.84375 -20.359375 C 18.96875 -21.316406 17.742188 -21.796875 16.171875 -21.796875 C 14.609375 -21.796875 13.328125 -21.296875 12.328125 -20.296875 C 11.328125 -19.304688 10.820312 -17.910156 10.8125 -16.109375 Z M 10.8125 -16.109375 "/></g></g></g></svg>